HIERARCHY
ROOT Hips
{
	OFFSET 0.000000 89.005402 0.000000
	CHANNELS 6 Xposition Yposition Zposition Xrotation Yrotation Zrotation
	JOINT Spine
	{
		OFFSET 0.116900 10.681000 0.373400
		CHANNELS 3 Xrotation Yrotation Zrotation
		JOINT Spine1
		{
			OFFSET 0.000000 13.840401 0.053500
			CHANNELS 3 Xrotation Yrotation Zrotation
			JOINT Spine2
			{
				OFFSET 0.000000 14.712700 -0.366200
				CHANNELS 3 Xrotation Yrotation Zrotation
				JOINT Neck
				{
					OFFSET 0.000000 35.415497 -3.314200
					CHANNELS 3 Xrotation Yrotation Zrotation
					JOINT Head
					{
						OFFSET 0.000000 16.899200 1.218300
						CHANNELS 3 Xrotation Yrotation Zrotation
						JOINT HeadTop_End
						{
							OFFSET 0.000000 22.206207 2.192500
							CHANNELS 3 Xrotation Yrotation Zrotation
							End Site
							{
								OFFSET 0.000000 22.314178 0.000000
							}
						}
					}
				}
				JOINT LeftShoulder
				{
					OFFSET 12.896400 26.716293 -4.548400
					CHANNELS 3 Xrotation Yrotation Zrotation
					JOINT LeftArm
					{
						OFFSET 19.027000 -4.857010 -1.718400
						CHANNELS 3 Xrotation Yrotation Zrotation
						JOINT LeftForeArm
						{
							OFFSET 24.179897 0.000000 0.000000
							CHANNELS 3 Xrotation Yrotation Zrotation
							JOINT LeftHand
							{
								OFFSET 27.156403 0.000000 0.000000
								CHANNELS 3 Xrotation Yrotation Zrotation
								JOINT LeftHandIndex1
								{
									OFFSET 16.441200 0.000000 0.000000
									CHANNELS 3 Xrotation Yrotation Zrotation
									JOINT LeftHandIndex2
									{
										OFFSET 4.821899 0.000000 0.000000
										CHANNELS 3 Xrotation Yrotation Zrotation
										JOINT LeftHandIndex3
										{
											OFFSET 6.386497 0.000000 0.000000
											CHANNELS 3 Xrotation Yrotation Zrotation
											JOINT LeftHandIndex4
											{
												OFFSET 5.188988 0.000000 0.000000
												CHANNELS 3 Xrotation Yrotation Zrotation
												End Site
												{
													OFFSET -0.178703 5.185913 0.000177
												}
											}
										}
									}
								}
								JOINT LeftHandThumb1
								{
									OFFSET 6.534897 -5.032593 5.900300
									CHANNELS 3 Xrotation Yrotation Zrotation
									JOINT LeftHandThumb2
									{
										OFFSET 3.818176 -2.204422 2.204423
										CHANNELS 3 Xrotation Yrotation Zrotation
										JOINT LeftHandThumb3
										{
											OFFSET 3.252098 -1.877594 1.877601
											CHANNELS 3 Xrotation Yrotation Zrotation
											JOINT LeftHandThumb4
											{
												OFFSET 5.251778 -3.032120 3.032117
												CHANNELS 3 Xrotation Yrotation Zrotation
												End Site
												{
													OFFSET 0.000023 6.780014 0.000000
												}
											}
										}
									}
								}
							}
						}
					}
				}
				JOINT RightShoulder
				{
					OFFSET -12.896300 26.716293 -4.548400
					CHANNELS 3 Xrotation Yrotation Zrotation
					JOINT RightArm
					{
						OFFSET -19.027000 -4.857010 -1.718400
						CHANNELS 3 Xrotation Yrotation Zrotation
						JOINT RightForeArm
						{
							OFFSET -24.179897 0.000000 0.000000
							CHANNELS 3 Xrotation Yrotation Zrotation
							JOINT RightHand
							{
								OFFSET -27.156403 0.000000 0.000000
								CHANNELS 3 Xrotation Yrotation Zrotation
								JOINT RightHandThumb1
								{
									OFFSET -6.591202 -4.852203 5.988100
									CHANNELS 3 Xrotation Yrotation Zrotation
									JOINT RightHandThumb2
									{
										OFFSET -3.818176 -2.204422 2.204423
										CHANNELS 3 Xrotation Yrotation Zrotation
										JOINT RightHandThumb3
										{
											OFFSET -3.252098 -1.877594 1.877601
											CHANNELS 3 Xrotation Yrotation Zrotation
											JOINT RightHandThumb4
											{
												OFFSET -5.251778 -3.032120 3.032117
												CHANNELS 3 Xrotation Yrotation Zrotation
												End Site
												{
													OFFSET -0.000023 6.780014 0.000000
												}
											}
										}
									}
								}
								JOINT RightHandIndex1
								{
									OFFSET -16.029404 0.000000 0.000000
									CHANNELS 3 Xrotation Yrotation Zrotation
									JOINT RightHandIndex2
									{
										OFFSET -5.213303 0.000000 0.000000
										CHANNELS 3 Xrotation Yrotation Zrotation
										JOINT RightHandIndex3
										{
											OFFSET -6.386528 0.000000 0.000000
											CHANNELS 3 Xrotation Yrotation Zrotation
											JOINT RightHandIndex4
											{
												OFFSET -5.189026 0.000000 0.000000
												CHANNELS 3 Xrotation Yrotation Zrotation
												End Site
												{
													OFFSET 0.236702 5.183624 0.001972
												}
											}
										}
									}
								}
							}
						}
					}
				}
			}
		}
	}
	JOINT LeftUpLeg
	{
		OFFSET 14.073000 -7.904099 -1.463000
		CHANNELS 3 Xrotation Yrotation Zrotation
		JOINT LeftLeg
		{
			OFFSET -0.109806 -34.073280 4.093200
			CHANNELS 3 Xrotation Yrotation Zrotation
			JOINT LeftFoot
			{
				OFFSET 0.109806 -29.899420 -6.319000
				CHANNELS 3 Xrotation Yrotation Zrotation
				JOINT LeftToeBase
				{
					OFFSET 1.551100 -14.988700 20.535801
					CHANNELS 3 Xrotation Yrotation Zrotation
					JOINT LeftToe_End
					{
						OFFSET 0.221200 0.570800 13.248301
						CHANNELS 3 Xrotation Yrotation Zrotation
						End Site
						{
							OFFSET 0.000000 13.262435 0.000000
						}
					}
				}
			}
		}
	}
	JOINT RightUpLeg
	{
		OFFSET -13.839300 -7.904099 -1.463000
		CHANNELS 3 Xrotation Yrotation Zrotation
		JOINT RightLeg
		{
			OFFSET 0.109694 -34.073219 4.093300
			CHANNELS 3 Xrotation Yrotation Zrotation
			JOINT RightFoot
			{
				OFFSET -0.109694 -29.899384 -6.319200
				CHANNELS 3 Xrotation Yrotation Zrotation
				JOINT RightToeBase
				{
					OFFSET -1.551100 -14.988700 20.535801
					CHANNELS 3 Xrotation Yrotation Zrotation
					JOINT RightToe_End
					{
						OFFSET -0.221200 0.570900 13.248299
						CHANNELS 3 Xrotation Yrotation Zrotation
						End Site
						{
							OFFSET 0.000000 13.262440 0.000000
						}
					}
				}
			}
		}
	}
}
MOTION
Frames: 5
Frame Time: 0.033333
1.264125 85.844490 1.316967 -0.894736 1.579318 -4.908341 1.279478 -1.203774 2.562358 0.726330 0.258686 5.939289 0.708008 0.780955 5.851732 1.046623 -0.294486 -2.164243 1.574030 0.544388 -8.136085 0.000000 -0.000000 0.000000 3.568384 -13.763378 -5.051026 4.032753 3.507353 -83.677836 -0.000001 -14.506748 -0.000001 -27.581356 3.696321 -9.418169 0.340575 4.671641 -7.848727 0.387194 2.824012 -20.570800 0.034697 0.817304 -10.174440 0.000001 -0.000001 -0.000001 18.482104 -0.456286 10.911565 1.275913 32.751010 -3.086236 2.111092 9.302162 -0.353222 0.000000 -0.000001 -0.000001 4.511740 3.324262 5.472724 -1.219859 0.655879 67.344852 0.000000 17.725700 -0.000003 -11.192365 -9.125572 10.138887 18.486778 0.466208 -10.912440 1.277405 -32.750221 3.086326 2.007374 -8.420608 1.112664 -0.000001 0.000001 0.000001 0.352571 -4.677601 7.851101 0.387257 -2.824186 20.572648 -0.193100 -0.217046 13.850625 0.000000 -0.000000 -0.000001 -18.565868 10.682587 17.376891 25.924961 8.712780 2.286423 -6.343817 4.291609 -13.005624 -0.468083 -0.000007 -0.000001 0.000000 0.000000 -0.000000 2.595786 -4.055722 11.308248 8.110130 -5.309547 3.236179 -10.009774 1.135979 -8.553176 -0.585570 0.000001 0.000000 -0.000000 0.000001 -0.000000 
1.191082 85.852104 1.291957 -0.894751 1.625542 -4.838770 1.330337 -1.176587 2.531720 0.726330 0.263380 5.939287 0.708008 0.784993 5.847980 1.032647 -0.294486 -2.164239 1.447858 0.558801 -8.129161 0.000001 0.000000 0.000000 3.569348 -13.752762 -5.050799 4.210985 3.787098 -83.635202 -0.000001 -14.444585 -0.000036 -27.599857 3.676398 -9.423677 0.337742 4.650028 -7.845196 0.387002 2.823496 -20.565346 0.034619 0.816753 -10.168981 0.000001 -0.000001 0.000002 18.458311 -0.450881 10.947468 1.257824 32.704821 -3.086149 2.099694 9.254915 -0.361300 -0.000000 0.000002 0.000000 4.511011 3.325256 5.485328 -1.249556 0.802473 67.341915 0.000000 17.725690 0.000007 -11.161654 -9.125435 10.179222 18.485972 0.448858 -10.915383 1.284507 -32.768331 3.086376 2.011880 -8.439123 1.109452 0.000002 -0.000001 0.000001 0.352294 -4.679507 7.870412 0.387944 -2.826016 20.592033 -0.193027 -0.219064 13.869964 -0.000000 0.000000 -0.000002 -18.527168 10.707668 17.348482 25.767468 8.689887 2.286726 -6.206373 4.218093 -13.045285 -0.468085 0.000012 0.000001 0.000000 0.000001 -0.000000 2.590553 -4.055993 11.292879 8.115247 -5.361912 3.254939 -10.016115 1.138016 -8.617324 -0.585570 -0.000001 -0.000003 -0.000000 0.000000 -0.000000 
1.125786 85.862320 1.270067 -0.894760 1.656033 -4.772435 1.353407 -1.120546 2.500535 0.726330 0.278596 5.928235 0.708008 0.798959 5.833803 1.021855 -0.294486 -2.164248 1.360733 0.587983 -8.098110 -0.000000 0.000000 -0.000000 3.571371 -13.717706 -5.055071 4.414630 3.969898 -83.591175 -0.000000 -14.482882 -0.000016 -27.670208 3.616314 -9.437779 0.329578 4.586355 -7.829335 0.386237 2.821467 -20.543843 0.034314 0.814594 -10.147490 0.000002 0.000000 -0.000001 18.388804 -0.435272 11.052234 1.204987 32.569880 -3.085977 2.066308 9.116806 -0.384890 -0.000000 -0.000000 0.000000 4.498080 3.331201 5.505094 -1.295319 0.832995 67.329280 -0.000008 17.725704 0.000043 -11.211092 -9.183838 10.146938 18.495686 0.395770 -10.931795 1.305108 -32.820842 3.086526 2.024986 -8.492861 1.100229 0.000000 0.000001 0.000000 0.351497 -4.685038 7.926430 0.389944 -2.831322 20.648237 -0.192810 -0.224922 13.926018 -0.000000 -0.000000 0.000004 -18.505364 10.732885 17.316350 25.618416 8.665243 2.287716 -6.078161 4.167276 -13.073043 -0.468084 0.000004 0.000003 -0.000000 0.000000 -0.000000 2.571807 -4.066456 11.271196 8.104070 -5.395467 3.280374 -10.006241 1.140424 -8.682484 -0.585007 -0.000001 0.000001 -0.000000 0.000000 -0.000000 
1.069559 85.873817 1.248211 -0.889096 1.678298 -4.710539 1.382599 -1.052640 2.473116 0.727985 0.296261 5.910862 0.709730 0.814482 5.812937 1.010406 -0.294486 -2.160018 1.300776 0.611916 -8.061742 0.000000 -0.000000 -0.000000 3.572857 -13.666903 -5.067565 4.587744 4.103421 -83.582220 -0.000006 -14.533722 -0.000038 -27.669977 3.486799 -9.365740 0.316467 4.483415 -7.803489 0.384994 2.818150 -20.508732 0.033819 0.811078 -10.112471 -0.000002 0.000000 0.000000 18.276234 -0.406058 11.222361 1.119643 32.351481 -3.085988 2.012202 8.893343 -0.423271 -0.000000 0.000005 0.000001 4.473978 3.349976 5.532431 -1.347916 0.843495 67.306036 0.000000 17.725697 -0.000003 -11.252988 -9.293181 10.057260 18.511245 0.310625 -10.958093 1.338162 -32.905068 3.086780 2.045977 -8.579036 1.085429 -0.000001 -0.000000 -0.000001 0.351579 -4.693723 8.016451 0.393160 -2.839826 20.738360 -0.192449 -0.234316 14.015984 0.000000 -0.000000 0.000004 -18.468041 10.759140 17.281466 25.465518 8.637830 2.288395 -5.957794 4.123126 -13.100678 -0.468080 -0.000011 0.000000 0.000000 0.000001 0.000000 2.569977 -4.100828 11.233918 8.085008 -5.394866 3.323986 -9.990578 1.143699 -8.752316 -0.583026 0.000001 0.000001 0.000000 0.000001 0.000000 
1.022203 85.886177 1.224041 -0.885366 1.690074 -4.643237 1.421287 -0.984523 2.434981 0.732391 0.313293 5.884087 0.714264 0.829958 5.786095 0.997003 -0.292958 -2.138843 1.233333 0.636977 -7.985837 0.000000 -0.000000 0.000000 3.566246 -13.617999 -5.067200 4.700638 4.213693 -83.629601 -0.000002 -14.544758 -0.000007 -27.624179 3.316057 -9.219956 0.298873 4.343780 -7.768089 0.383300 2.813621 -20.460796 0.033141 0.806263 -10.064565 0.000000 0.000000 0.000001 18.123386 -0.362476 11.454109 1.004128 32.054952 -3.086681 1.938544 8.590022 -0.475647 -0.000000 -0.000002 0.000000 4.437084 3.367270 5.602844 -1.417594 0.881061 67.250097 0.000003 17.738754 -0.000014 -11.174051 -9.404885 9.982756 18.532098 0.196142 -10.993379 1.382671 -33.018302 3.087233 2.074180 -8.694902 1.065616 -0.000000 0.000001 -0.000000 0.353449 -4.705155 8.137623 0.397506 -2.851252 20.859527 -0.191940 -0.246945 14.136910 0.000000 -0.000000 -0.000005 -18.422154 10.788604 17.228056 25.310253 8.607964 2.289251 -5.844465 4.071647 -13.117478 -0.468084 -0.000021 0.000006 0.000000 -0.000001 -0.000000 2.563024 -4.148557 11.183005 8.078124 -5.372136 3.373622 -9.977306 1.147443 -8.820072 -0.580697 0.000002 0.000003 0.000000 0.000000 0.000000 
